<svg xmlns="http://www.w3.org/2000/svg" viewBox="0 0 736.18 292.52"><defs><style>.cls-1{fill:#1d1d1b;}.cls-2{fill:#d98c18;}</style></defs><title>Fichier 1100</title><g id="Calque_2" data-name="Calque 2"><g id="Calque_1-2" data-name="Calque 1"><path class="cls-1" d="M545.68,283.92a4.82,4.82,0,0,1,1.52,3.8,5.06,5.06,0,0,1-1.35,3.29,4.84,4.84,0,0,1-3.63,1.43,4.59,4.59,0,0,1-3-1.26,4.83,4.83,0,0,1-1.44-3.63,5.35,5.35,0,0,1,1.52-3.54,5,5,0,0,1,3.29-1.35A4.69,4.69,0,0,1,545.68,283.92Z"/><path class="cls-1" d="M569.25,290.86c-1.52,0-4.08-.24-8.16-.24-3.36,0-6.48.24-7.84.24a2.92,2.92,0,0,1,0-2.32,17.26,17.26,0,0,0,3.44-.71c1-.4,1.28-1.05,1.44-2.88.16-2,.16-7.28.16-11.68,0-3.12-.08-6-.08-7.6a2.49,2.49,0,0,0-.56-1.68,10.14,10.14,0,0,0-3.84-1.92,2.34,2.34,0,0,1,.32-1.92,37.33,37.33,0,0,0,10.4-2.32c0,3.6-.08,9.12-.08,14,0,4.4,0,9.76.08,13.35,0,1.45.48,2.33,1.67,2.72a22.84,22.84,0,0,0,3.37.64A3.33,3.33,0,0,1,569.25,290.86Zm-6.1-41.78a8.1,8.1,0,0,1-3.8.17,4.11,4.11,0,0,1-2.19-3.46,4.06,4.06,0,0,1,.42-2.44,7,7,0,0,1,4-1.52,3.57,3.57,0,0,1,2.44.67,4.27,4.27,0,0,1,.85,2.45A5.41,5.41,0,0,1,563.15,249.08Z"/><path class="cls-1" d="M576.14,288.64c1.43-.42,1.69-1.43,1.77-3.28.25-4.64.25-13.42.25-19.07a3.16,3.16,0,0,0-.75-2.36,11,11,0,0,0-4-1.86,2.41,2.41,0,0,1,.34-2,32,32,0,0,0,10.54-3.12l.26.42c0,.59-.09,3.63-.09,4.89a.33.33,0,0,0,.51.17c4.81-3.79,8.94-5.4,11.47-5.4a9.63,9.63,0,0,1,8.6,5.57.41.41,0,0,0,.59.08c4.39-3.45,8.69-5.65,11.9-5.65,6.49,0,10.46,4.89,10.46,13.58.08,4.56.08,12.4.08,15.86a2.09,2.09,0,0,0,.85,1.77c1,.59,2.27.76,4.46,1.1a4,4,0,0,1-.42,2.45c-1.52,0-4.3-.26-7.76-.26-4.22,0-6.41.09-8.52.26a3.56,3.56,0,0,1,0-2.45,16,16,0,0,0,3.21-.76c1.26-.42,1.43-1.43,1.52-4.13.08-4.56.25-13.33-.26-15.86-.42-2.79-2.27-6.5-7.5-6.5a12,12,0,0,0-7.43,3c-.16.09-.16.42-.16.59a40.66,40.66,0,0,1,.33,6.07c0,4.56-.08,11.22.09,14.77a2,2,0,0,0,1.35,2,21.55,21.55,0,0,0,3.62.76,3.08,3.08,0,0,1-.25,2.45c-2.36-.09-4.89-.26-8.52-.26-2.53,0-6.33.26-7.84.26a3.07,3.07,0,0,1,0-2.45,22.86,22.86,0,0,0,3.37-.68c1.1-.33,1.43-1,1.52-2.86.25-4,.34-15.1-.17-17.63s-2.11-6.25-7.09-6.25a12.06,12.06,0,0,0-6.83,2.62,2.72,2.72,0,0,0-1.09,2c0,5.49-.09,15.78.08,19.74a2.19,2.19,0,0,0,1.77,2.45c.67.17,1.86.34,3.21.59a3.13,3.13,0,0,1-.17,2.45c-1.94,0-4.81-.26-8.27-.26-4.39,0-6.16.26-8.27.26-.42-.34-.42-2.2,0-2.45A23.3,23.3,0,0,0,576.14,288.64Z"/><path class="cls-1" d="M639.67,288.64c1.43-.42,1.68-1.43,1.77-3.28.25-4.64.25-13.42.25-19.07a3.13,3.13,0,0,0-.76-2.36,11,11,0,0,0-4-1.86,2.38,2.38,0,0,1,.34-2,32,32,0,0,0,10.54-3.12l.25.42c0,.59-.08,3.63-.08,4.89a.32.32,0,0,0,.5.17c4.81-3.79,8.94-5.4,11.48-5.4a9.64,9.64,0,0,1,8.6,5.57.41.41,0,0,0,.59.08c4.39-3.45,8.69-5.65,11.89-5.65,6.5,0,10.46,4.89,10.46,13.58.09,4.56.09,12.4.09,15.86a2.11,2.11,0,0,0,.84,1.77c1,.59,2.28.76,4.47,1.1a4,4,0,0,1-.42,2.45c-1.52,0-4.3-.26-7.76-.26-4.22,0-6.41.09-8.52.26-.25-.26-.34-2.2,0-2.45a16,16,0,0,0,3.21-.76c1.26-.42,1.43-1.43,1.52-4.13.08-4.56.25-13.33-.26-15.86-.42-2.79-2.28-6.5-7.51-6.5a12,12,0,0,0-7.42,3c-.17.09-.17.42-.17.59a40.47,40.47,0,0,1,.34,6.07c0,4.56-.09,11.22.08,14.77a2,2,0,0,0,1.35,2,21.92,21.92,0,0,0,3.63.76,3.08,3.08,0,0,1-.25,2.45c-2.36-.09-4.9-.26-8.52-.26-2.53,0-6.33.26-7.85.26a3.15,3.15,0,0,1,0-2.45,22.75,22.75,0,0,0,3.38-.68c1.09-.33,1.43-1,1.52-2.86.25-4,.33-15.1-.17-17.63S661,261.9,656,261.9a12.06,12.06,0,0,0-6.83,2.62,2.74,2.74,0,0,0-1.1,2c0,5.49-.08,15.78.09,19.74a2.19,2.19,0,0,0,1.77,2.45c.67.17,1.85.34,3.2.59a3.13,3.13,0,0,1-.16,2.45c-2,0-4.81-.26-8.27-.26-4.39,0-6.16.26-8.27.26-.42-.34-.42-2.2,0-2.45A23.64,23.64,0,0,0,639.67,288.64Z"/><path class="cls-1" d="M736.18,274c0,6.49-2.62,12.14-7.85,15.43a19.44,19.44,0,0,1-9.78,3.12c-12.32,0-16.79-9.36-16.79-18a16.19,16.19,0,0,1,7.34-14.08,21.34,21.34,0,0,1,11-3.38C730.27,257,736.18,264.52,736.18,274Zm-22.95-12.49c-2.19,1.44-4.3,4.47-4.3,10.88,0,10,5,16.71,11.73,16.71a7.41,7.41,0,0,0,5.14-1.77c2.28-2.11,3.21-5.49,3.21-10.63,0-9.79-4.56-16.37-11.73-16.37A7.57,7.57,0,0,0,713.23,261.48Z"/><path class="cls-1" d="M0,215V11.65C.46,4.12,4.22.36,11.76.36S23.05,4.12,23,11.65V90.07h90V11.65C113.43,4.12,117.2.36,124.74.36S136,4.12,136,11.65V215q0,11.28-11.26,11.29c-7.54,0-11.31-3.77-11.74-11.29v-102H23V215c.05,7.52-3.71,11.29-11.24,11.29S.46,222.54,0,215Z"/><path class="cls-1" d="M366,158.67q0,28.16-19.92,48.08-22.44,22.44-55.32,19.6a63.64,63.64,0,0,1-35.49-14.7Q230,190.4,230,158.67V68q0-28.15,19.92-48.08T298,0q28.33,0,48.17,19.83T366,68Zm-23-.34v-90q0-18.91-13-31.95t-32-13q-18.92,0-32,13T253,68.33v90q0,18.91,13,32t32,13q18.92,0,32-13T343,158.33Z"/><path class="cls-1" d="M735.77,214.77q0,11.29-11.3,11.3h-.17a11.3,11.3,0,0,1-11.3-11.3V11.36A11.29,11.29,0,0,1,724.3.07h.17q11.29,0,11.3,11.29"/><path class="cls-2" d="M409.06,226.07,502.48,4.24,539.6,90.66c11.26-27.39,25.26-60.86,36.21-86.73l94,222.14H644L575.81,65.7,552.69,122,596.2,226.07H482.4l43.81-104.38c-4.56-11.26-8.52-20.38-13.08-30.12-4.26-10-5.78-14-10.65-25.56C489.39,98,475.4,131.43,461.4,163.69c-8.22,20.08-18.26,42.9-26.17,62.38Zm130.54-73.6-21,49.6H560Z"/></g></g></svg>