<svg viewBox="0 0 736.18 292.55" xmlns="http://www.w3.org/2000/svg"><defs><style>.cls-1{fill:#1d1d1b;}.cls-2{fill:#fff;}</style></defs><title>LOGO HOMI0</title><g data-name="Calque 2" id="Calque_2"><g data-name="Calque 1" id="Calque_1-2"><g data-name="Calque 2" id="Calque_2-2"><g data-name="Calque 1-2" id="Calque_1-2-2"><path d="M545.68,283.92a4.82,4.82,0,0,1,1.52,3.8,5.11,5.11,0,0,1-1.35,3.29,4.87,4.87,0,0,1-3.63,1.43,4.6,4.6,0,0,1-3-1.26,4.83,4.83,0,0,1-1.44-3.63A5.34,5.34,0,0,1,539.3,284a5,5,0,0,1,3.29-1.35A4.73,4.73,0,0,1,545.68,283.92Z" class="cls-1"></path><path d="M569.25,290.86c-1.52,0-4.08-.24-8.16-.24-3.36,0-6.48.24-7.84.24a2.92,2.92,0,0,1,0-2.32,17.52,17.52,0,0,0,3.44-.71c1-.4,1.28-1.05,1.44-2.88.16-2,.16-7.28.16-11.68,0-3.12-.08-6-.08-7.6a2.44,2.44,0,0,0-.56-1.68,10.14,10.14,0,0,0-3.84-1.92,2.33,2.33,0,0,1,.32-1.92,37.16,37.16,0,0,0,10.4-2.32c0,3.6-.08,9.12-.08,14,0,4.4,0,9.76.08,13.35,0,1.45.48,2.33,1.67,2.72a22.75,22.75,0,0,0,3.37.64A3.34,3.34,0,0,1,569.25,290.86Zm-6.1-41.78a8,8,0,0,1-3.8.17,4.11,4.11,0,0,1-2.19-3.46,4,4,0,0,1,.42-2.44,7,7,0,0,1,4-1.52,3.59,3.59,0,0,1,2.44.67,4.25,4.25,0,0,1,.85,2.45,5.41,5.41,0,0,1-1.72,4.13Z" class="cls-1"></path><path d="M576.14,288.64c1.43-.42,1.69-1.43,1.77-3.28.25-4.64.25-13.42.25-19.07a3.16,3.16,0,0,0-.75-2.36,10.94,10.94,0,0,0-4-1.86,2.4,2.4,0,0,1,.34-2A31.9,31.9,0,0,0,584.29,257l.26.42c0,.59-.09,3.63-.09,4.89a.33.33,0,0,0,.41.22l.1-.05c4.81-3.79,8.94-5.4,11.47-5.4a9.63,9.63,0,0,1,8.6,5.57.4.4,0,0,0,.57.09h0c4.39-3.45,8.69-5.65,11.9-5.65C624,257,628,261.92,628,270.61c.08,4.56.08,12.4.08,15.86a2.09,2.09,0,0,0,.85,1.77c1,.59,2.27.76,4.46,1.1a4,4,0,0,1-.42,2.45c-1.52,0-4.3-.26-7.76-.26-4.22,0-6.41.09-8.52.26a3.56,3.56,0,0,1,0-2.45,16.12,16.12,0,0,0,3.21-.76c1.26-.42,1.43-1.43,1.52-4.13.08-4.56.25-13.33-.26-15.86-.42-2.79-2.27-6.5-7.5-6.5a12,12,0,0,0-7.43,3c-.16.09-.16.42-.16.59a41,41,0,0,1,.33,6.07c0,4.56-.08,11.22.09,14.77a2,2,0,0,0,1.35,2,21.17,21.17,0,0,0,3.62.76,3.09,3.09,0,0,1-.25,2.45c-2.36-.09-4.89-.26-8.52-.26-2.53,0-6.33.26-7.84.26a3.07,3.07,0,0,1,0-2.45,22.6,22.6,0,0,0,3.37-.68c1.1-.33,1.43-1,1.52-2.86.25-4,.34-15.1-.17-17.63s-2.11-6.25-7.09-6.25a12.1,12.1,0,0,0-6.83,2.62,2.72,2.72,0,0,0-1.09,2c0,5.49-.09,15.78.08,19.74a2.19,2.19,0,0,0,1.77,2.45c.67.17,1.86.34,3.21.59a3.12,3.12,0,0,1-.17,2.45c-1.94,0-4.81-.26-8.27-.26-4.39,0-6.16.26-8.27.26-.42-.34-.42-2.2,0-2.45A23.74,23.74,0,0,0,576.14,288.64Z" class="cls-1"></path><path d="M639.67,288.64c1.43-.42,1.68-1.43,1.77-3.28.25-4.64.25-13.42.25-19.07a3.13,3.13,0,0,0-.76-2.36,10.94,10.94,0,0,0-4-1.86,2.37,2.37,0,0,1,.34-2A31.9,31.9,0,0,0,647.81,257l.25.42c0,.59-.08,3.63-.08,4.89a.31.31,0,0,0,.39.22l.11-.05c4.81-3.79,8.94-5.4,11.48-5.4a9.63,9.63,0,0,1,8.6,5.57.4.4,0,0,0,.57.09h0c4.39-3.45,8.69-5.65,11.89-5.65,6.5,0,10.46,4.89,10.46,13.58.09,4.56.09,12.4.09,15.86a2.12,2.12,0,0,0,.84,1.77c1,.59,2.28.76,4.47,1.1a4,4,0,0,1-.42,2.45c-1.52,0-4.3-.26-7.76-.26-4.22,0-6.41.09-8.52.26-.25-.26-.34-2.2,0-2.45a16.12,16.12,0,0,0,3.21-.76c1.26-.42,1.43-1.43,1.52-4.13.08-4.56.25-13.33-.26-15.86-.42-2.79-2.28-6.5-7.51-6.5a12,12,0,0,0-7.42,3c-.17.09-.17.42-.17.59a39.72,39.72,0,0,1,.34,6.07c0,4.56-.09,11.22.08,14.77a2,2,0,0,0,1.35,2,21.49,21.49,0,0,0,3.63.76,3.09,3.09,0,0,1-.25,2.45c-2.36-.09-4.9-.26-8.52-.26-2.53,0-6.33.26-7.85.26a3.16,3.16,0,0,1,0-2.45,23,23,0,0,0,3.38-.68c1.09-.33,1.43-1,1.52-2.86.25-4,.33-15.1-.17-17.63S661,261.9,656,261.9a12.1,12.1,0,0,0-6.83,2.62,2.75,2.75,0,0,0-1.1,2c0,5.49-.08,15.78.09,19.74a2.19,2.19,0,0,0,1.77,2.45c.67.17,1.85.34,3.2.59a3.16,3.16,0,0,1-.16,2.45c-2,0-4.81-.26-8.27-.26-4.39,0-6.16.26-8.27.26-.42-.34-.42-2.2,0-2.45A22.42,22.42,0,0,0,639.67,288.64Z" class="cls-1"></path><path d="M736.18,274c0,6.49-2.62,12.14-7.85,15.43a19.37,19.37,0,0,1-9.78,3.12c-12.32,0-16.79-9.36-16.79-18a16.19,16.19,0,0,1,7.34-14.08,21.38,21.38,0,0,1,11-3.38C730.27,257,736.18,264.52,736.18,274Zm-22.95-12.49c-2.19,1.44-4.3,4.47-4.3,10.88,0,10,5,16.71,11.73,16.71a7.42,7.42,0,0,0,5.14-1.77c2.28-2.11,3.21-5.49,3.21-10.63,0-9.79-4.56-16.37-11.73-16.37a7.53,7.53,0,0,0-4,1.15Z" class="cls-1"></path><path d="M0,215V11.65C.46,4.12,4.22.36,11.76.36S23.05,4.12,23,11.65V90.07h90V11.65C113.43,4.12,117.2.36,124.74.36S136,4.12,136,11.65V215q0,11.28-11.26,11.29c-7.54,0-11.31-3.77-11.74-11.29V113H23V215c.05,7.52-3.71,11.29-11.24,11.29S.46,222.54,0,215Z" class="cls-1"></path><path d="M366,158.67q0,28.16-19.92,48.08-22.44,22.44-55.32,19.6a63.64,63.64,0,0,1-35.49-14.7Q230,190.4,230,158.67V68q0-28.15,19.92-48.08T298,0q28.33,0,48.17,19.83T366,68Zm-23-.34v-90q0-18.91-13-31.95t-32-13q-18.92,0-32,13T253,68.33v90q0,18.91,13,32t32,13q18.92,0,32-13T343,158.33Z" class="cls-1"></path><path d="M735.77,214.77q0,11.29-11.3,11.3h-.17a11.3,11.3,0,0,1-11.3-11.3V11.36A11.28,11.28,0,0,1,724.29.07h.18q11.29,0,11.3,11.29" class="cls-1"></path><path d="M409.06,226.07,502.48,4.24,539.6,90.66c11.26-27.39,25.26-60.86,36.21-86.73l94,222.14H644L575.81,65.7,552.69,122,596.2,226.07H482.4l43.81-104.38c-4.56-11.26-8.52-20.38-13.08-30.12-4.26-10-5.78-14-10.65-25.56-13.09,32-27.08,65.42-41.08,97.68-8.22,20.08-18.26,42.9-26.17,62.38Zm130.54-73.6-21,49.6H560Z" class="cls-2"></path></g></g></g></g></svg>